<?xml version="1.0" encoding="UTF-8" standalone="no"?>
<svg
   xmlns:dc="http://purl.org/dc/elements/1.1/"
   xmlns:cc="http://creativecommons.org/ns#"
   xmlns:rdf="http://www.w3.org/1999/02/22-rdf-syntax-ns#"
   xmlns:svg="http://www.w3.org/2000/svg"
   xmlns="http://www.w3.org/2000/svg"
   xmlns:sodipodi="http://sodipodi.sourceforge.net/DTD/sodipodi-0.dtd"
   xmlns:inkscape="http://www.inkscape.org/namespaces/inkscape"
   viewBox="0 0 654.94562 81.279053"
   height="81.279053"
   width="654.94562"
   xml:space="preserve"
   id="svg2"
   version="1.1"
   sodipodi:docname="developed-with-youtube.svg"
   inkscape:version="0.92.4 (5da689c313, 2019-01-14)"><sodipodi:namedview
     pagecolor="#ffffff"
     bordercolor="#666666"
     borderopacity="1"
     objecttolerance="10"
     gridtolerance="10"
     guidetolerance="10"
     inkscape:pageopacity="0"
     inkscape:pageshadow="2"
     inkscape:window-width="1920"
     inkscape:window-height="1053"
     id="namedview839"
     showgrid="false"
     inkscape:zoom="0.75898831"
     inkscape:cx="461.99586"
     inkscape:cy="-60.358242"
     inkscape:window-x="0"
     inkscape:window-y="0"
     inkscape:window-maximized="1"
     inkscape:current-layer="g14" /><metadata
     id="metadata8"><rdf:RDF><cc:Work
         rdf:about=""><dc:format>image/svg+xml</dc:format><dc:type
           rdf:resource="http://purl.org/dc/dcmitype/StillImage" /><dc:title /></cc:Work></rdf:RDF></metadata><defs
     id="defs6"><clipPath
       id="clipPath18"
       clipPathUnits="userSpaceOnUse"><path
         id="path16"
         d="M 0,500 H 700 V 0 H 0 Z" /></clipPath></defs><g
     transform="matrix(1.3333333,0,0,-1.3333333,-141.80412,257.58413)"
     id="g10"><g
       id="g12"><g
         clip-path="url(#clipPath18)"
         id="g14"><g
   style="fill:#ffffff"
   transform="translate(467.7817,148.5889)"
   id="g52"><path
     id="path54"
     style="fill:#ffffff;fill-opacity:1;fill-rule:nonzero;stroke:none"
     d="m 0,0 c 0.452,1.18 0.679,3.106 0.679,5.781 v 11.268 c 0,2.596 -0.227,4.493 -0.679,5.693 -0.452,1.199 -1.249,1.799 -2.389,1.799 -1.102,0 -1.879,-0.6 -2.33,-1.799 -0.453,-1.2 -0.678,-3.097 -0.678,-5.693 V 5.781 c 0,-2.675 0.215,-4.601 0.648,-5.781 0.433,-1.18 1.219,-1.77 2.36,-1.77 1.14,0 1.937,0.59 2.389,1.77 m -9.144,-5.663 c -1.632,1.101 -2.793,2.811 -3.48,5.133 -0.689,2.319 -1.033,5.406 -1.033,9.261 v 5.25 c 0,3.894 0.393,7.021 1.18,9.38 0.787,2.36 2.015,4.079 3.687,5.162 1.671,1.081 3.864,1.623 6.578,1.623 2.674,0 4.817,-0.551 6.43,-1.653 1.612,-1.1 2.792,-2.822 3.539,-5.161 0.747,-2.341 1.121,-5.457 1.121,-9.351 V 8.731 C 8.878,4.876 8.515,1.779 7.787,-0.561 7.059,-2.9 5.879,-4.611 4.248,-5.692 2.615,-6.773 0.403,-7.314 -2.389,-7.314 c -2.871,0 -5.123,0.55 -6.755,1.651"
     inkscape:connector-curvature="0" /></g><g
   style="fill:#ffffff"
   transform="translate(584.9663,172.4541)"
   id="g56"><path
     id="path58"
     style="fill:#ffffff;fill-opacity:1;fill-rule:nonzero;stroke:none"
     d="m 0,0 c -0.412,-0.512 -0.688,-1.348 -0.826,-2.507 -0.138,-1.161 -0.206,-2.92 -0.206,-5.28 v -2.596 h 5.958 v 2.596 c 0,2.32 -0.079,4.08 -0.236,5.28 C 4.533,-1.308 4.248,-0.463 3.835,0.029 3.422,0.521 2.782,0.768 1.917,0.768 1.052,0.768 0.414,0.511 0,0 m -1.032,-15.22 v -1.829 c 0,-2.321 0.068,-4.061 0.206,-5.221 0.138,-1.161 0.422,-2.005 0.856,-2.537 0.432,-0.531 1.1,-0.797 2.006,-0.797 1.218,0 2.054,0.473 2.506,1.417 0.452,0.944 0.698,2.516 0.738,4.719 l 7.02,-0.413 c 0.039,-0.315 0.059,-0.747 0.059,-1.298 0,-3.342 -0.914,-5.84 -2.743,-7.492 -1.828,-1.651 -4.415,-2.477 -7.758,-2.477 -4.011,0 -6.823,1.257 -8.436,3.775 -1.612,2.517 -2.419,6.41 -2.419,11.681 v 6.312 c 0,5.428 0.836,9.39 2.508,11.888 1.672,2.497 4.532,3.746 8.584,3.746 2.792,0 4.935,-0.512 6.429,-1.534 1.495,-1.024 2.547,-2.616 3.157,-4.779 0.61,-2.163 0.915,-5.153 0.915,-8.966 v -6.195 z"
     inkscape:connector-curvature="0" /></g><g
   style="fill:#ffffff"
   transform="translate(438.8145,157.9111)"
   id="g60"><path
     id="path62"
     style="fill:#ffffff;fill-opacity:1;fill-rule:nonzero;stroke:none"
     d="M 0,0 -9.262,33.449 H -1.18 L 2.064,18.288 C 2.891,14.551 3.5,11.365 3.893,8.731 h 0.236 c 0.275,1.888 0.885,5.053 1.829,9.498 l 3.362,15.22 h 8.083 L 8.023,0 V -16.047 H 0 Z"
     inkscape:connector-curvature="0" /></g><g
   style="fill:#ffffff"
   transform="translate(502.9458,178.0264)"
   id="g64"><path
     id="path66"
     style="fill:#ffffff;fill-opacity:1;fill-rule:nonzero;stroke:none"
     d="m 0,0 v -36.162 h -6.372 l -0.708,4.425 h -0.176 c -1.732,-3.344 -4.327,-5.015 -7.787,-5.015 -2.4,0 -4.169,0.786 -5.31,2.359 -1.141,1.574 -1.71,4.032 -1.71,7.374 V 0 h 8.141 v -26.546 c 0,-1.613 0.176,-2.764 0.53,-3.451 0.354,-0.689 0.944,-1.032 1.77,-1.032 0.708,0 1.387,0.216 2.035,0.648 0.649,0.433 1.13,0.983 1.446,1.652 V 0 Z"
     inkscape:connector-curvature="0" /></g><g
   style="fill:#ffffff"
   transform="translate(544.7036,178.0264)"
   id="g68"><path
     id="path70"
     style="fill:#ffffff;fill-opacity:1;fill-rule:nonzero;stroke:none"
     d="m 0,0 v -36.162 h -6.371 l -0.709,4.425 h -0.176 c -1.731,-3.344 -4.327,-5.015 -7.787,-5.015 -2.4,0 -4.169,0.786 -5.31,2.359 -1.141,1.574 -1.71,4.032 -1.71,7.374 V 0 h 8.141 v -26.546 c 0,-1.613 0.177,-2.764 0.53,-3.451 0.354,-0.689 0.944,-1.032 1.77,-1.032 0.708,0 1.387,0.216 2.036,0.648 0.648,0.433 1.13,0.983 1.445,1.652 V 0 Z"
     inkscape:connector-curvature="0" /></g><g
   style="fill:#ffffff"
   transform="translate(525.0674,184.8105)"
   id="g72"><path
     id="path74"
     style="fill:#ffffff;fill-opacity:1;fill-rule:nonzero;stroke:none"
     d="m 0,0 h -8.082 v -42.946 h -7.964 V 0 h -8.082 V 6.549 H 0 Z"
     inkscape:connector-curvature="0" /></g><g
   style="fill:#ffffff"
   transform="translate(564.1846,157.4951)"
   id="g76"><path
     id="path78"
     style="fill:#ffffff;fill-opacity:1;fill-rule:nonzero;stroke:none"
     d="m 0,0 c 0,-2.635 -0.109,-4.7 -0.325,-6.193 -0.216,-1.496 -0.58,-2.558 -1.091,-3.187 -0.512,-0.629 -1.2,-0.943 -2.064,-0.943 -0.67,0 -1.289,0.156 -1.859,0.471 -0.57,0.315 -1.032,0.787 -1.386,1.416 v 20.53 c 0.275,0.982 0.746,1.789 1.416,2.419 0.668,0.628 1.395,0.943 2.183,0.943 0.825,0 1.464,-0.324 1.917,-0.973 0.451,-0.649 0.766,-1.74 0.943,-3.274 C -0.088,9.675 0,7.492 0,4.661 Z m 7.462,14.751 c -0.492,2.28 -1.288,3.932 -2.389,4.955 -1.101,1.023 -2.615,1.534 -4.542,1.534 -1.495,0 -2.891,-0.424 -4.189,-1.268 -1.298,-0.846 -2.3,-1.957 -3.008,-3.333 h -0.06 l 0.001,19.054 h -7.846 v -51.324 h 6.725 l 0.825,3.422 h 0.178 c 0.628,-1.22 1.572,-2.183 2.831,-2.891 1.259,-0.708 2.655,-1.061 4.189,-1.061 2.752,0 4.778,1.267 6.076,3.805 C 7.551,-9.819 8.2,-5.858 8.2,-0.47 v 5.723 c 0,4.05 -0.246,7.216 -0.738,9.498"
     inkscape:connector-curvature="0" /></g><g
   aria-label="developed with"
   transform="matrix(1,0,0,-1,102.438,142.4609)"
   style="font-variant:normal;font-weight:300;font-stretch:normal;font-size:49.1908989px;font-family:'Roboto Light';-inkscape-font-specification:Roboto-Light;writing-mode:lr-tb;fill:#ffffff;fill-opacity:1;fill-rule:nonzero;stroke:none"
   id="text82"><path
     d="m 23.442538,-20.75241 v -16.621144 h 2.161709 V 0 h -2.161709 v -6.1008244 q -1.513197,3.5067731 -3.290602,4.8037987 -2.714147,1.99357651 -5.116046,1.99357651 -4.77978,0 -7.9502869,-3.89107691 -3.1705071,-3.891077 -3.1705071,-10.2320909 0,-6.341015 3.1705071,-10.232092 3.1705069,-3.891077 7.9502869,-3.891077 2.401899,0 5.116046,1.993577 1.777405,1.297025 3.290602,4.803799 z M 9.0311416,-22.794025 q -2.7862033,2.810222 -2.7862033,9.367408 0,6.5571848 2.7862033,9.3674071 2.7621844,2.8102222 5.8366154,2.8102222 3.002374,0 5.788577,-2.8102222 2.762185,-2.8102223 2.762185,-9.3674071 0,-6.557186 -2.762185,-9.367408 -2.786203,-2.810222 -5.788577,-2.810222 -3.074431,0 -5.8366154,2.810222 z"
     id="path841"
     inkscape:connector-curvature="0" /><path
     d="m 53.399219,-14.55551 v 1.393102 H 32.983074 q 0,6.4851278 2.521994,9.0791791 2.786204,2.8822792 8.286553,2.8822792 1.44114,0 3.81902,-0.6244938 2.401899,-0.6244938 4.755761,-1.8734815 v 2.3298424 q -2.377881,1.0087977 -4.875856,1.53721556 -2.497975,0.52841785 -3.963134,0.52841785 -6.220919,0 -9.367407,-3.36265911 -3.410697,-3.57883 -3.410697,-10.4962997 0,-7.18168 3.122469,-10.712472 3.194526,-3.674906 8.887027,-3.674906 5.284179,0 7.974306,3.482754 2.666109,3.650887 2.666109,9.511522 z m -2.233767,-0.48038 q 0,-5.668482 -2.546013,-8.262534 -2.137691,-2.305823 -5.812597,-2.305823 -4.011172,0 -6.725318,2.401899 -2.497975,2.233767 -3.002374,8.166458 z"
     id="path843"
     inkscape:connector-curvature="0" /><path
     d="m 54.585989,-26.901273 h 2.305824 l 9.127217,24.4753546 9.103199,-24.4753546 h 2.329842 L 67.436151,0 H 64.60191 Z"
     id="path845"
     inkscape:connector-curvature="0" /><path
     d="m 100.8586,-14.55551 v 1.393102 H 80.442455 q 0,6.4851278 2.521994,9.0791791 2.786204,2.8822792 8.286553,2.8822792 1.44114,0 3.81902,-0.6244938 2.4019,-0.6244938 4.755761,-1.8734815 v 2.3298424 q -2.37788,1.0087977 -4.875856,1.53721556 -2.497975,0.52841785 -3.963134,0.52841785 -6.220919,0 -9.367407,-3.36265911 -3.410697,-3.57883 -3.410697,-10.4962997 0,-7.18168 3.122469,-10.712472 3.194526,-3.674906 8.887027,-3.674906 5.284179,0 7.974306,3.482754 2.666109,3.650887 2.666109,9.511522 z m -2.233767,-0.48038 q 0,-5.668482 -2.546013,-8.262534 -2.137691,-2.305823 -5.812597,-2.305823 -4.011171,0 -6.725318,2.401899 -2.497975,2.233767 -3.002374,8.166458 z"
     id="path847"
     inkscape:connector-curvature="0" /><path
     d="m 104.82981,-37.373554 h 2.20974 V 0 h -2.20974 z"
     id="path849"
     inkscape:connector-curvature="0" /><path
     d="m 131.3533,-22.289626 q -2.37788,-3.314621 -6.48512,-3.314621 -4.10725,0 -6.48513,3.290602 -2.4019,3.266583 -2.4019,8.83899 0,5.7165201 2.37788,8.9831032 2.37788,3.2906021 6.50915,3.2906021 4.10724,0 6.48512,-3.2906021 2.4019,-3.3146211 2.4019,-8.9831032 0,-5.50035 -2.4019,-8.814971 z m -6.50914,-5.26016 q 5.14006,0 8.11842,3.843039 3.00237,3.867058 3.00237,10.256111 0,6.6052228 -3.00237,10.4242428 -2.97836,3.84303898 -8.11842,3.84303898 -5.18811,0 -8.19048,-3.81901998 -2.97835,-3.81902 -2.97835,-10.4482618 0,-6.46111 3.00237,-10.28013 3.00237,-3.81902 8.16646,-3.81902 z"
     id="path851"
     inkscape:connector-curvature="0" /><path
     d="M 144.6214,-6.1008244 V 10.232091 h -2.16171 v -37.133364 h 2.16171 v 6.148863 q 1.5132,-3.506774 3.2906,-4.803799 2.71415,-1.993577 5.11605,-1.993577 4.77978,0 7.95029,3.891077 3.1705,3.891077 3.1705,10.232092 0,6.3410139 -3.1705,10.2320909 -3.17051,3.89107691 -7.95029,3.89107691 -2.4019,0 -5.11605,-1.99357651 -1.7774,-1.2970256 -3.2906,-4.8037987 z m 14.4114,2.0416145 q 2.7862,-2.8102223 2.7862,-9.3674071 0,-6.557186 -2.7862,-9.367408 -2.76219,-2.810222 -5.83662,-2.810222 -3.00237,0 -5.78857,2.810222 -2.76219,2.810222 -2.76219,9.367408 0,6.5571848 2.76219,9.3674071 2.7862,2.8102222 5.78857,2.8102222 3.07443,0 5.83662,-2.8102222 z"
     id="path853"
     inkscape:connector-curvature="0" /><path
     d="m 190.14008,-14.55551 v 1.393102 h -20.41615 q 0,6.4851278 2.522,9.0791791 2.7862,2.8822792 8.28655,2.8822792 1.44114,0 3.81902,-0.6244938 2.4019,-0.6244938 4.75576,-1.8734815 v 2.3298424 q -2.37788,1.0087977 -4.87585,1.53721556 -2.49798,0.52841785 -3.96314,0.52841785 -6.22092,0 -9.36741,-3.36265911 -3.41069,-3.57883 -3.41069,-10.4962997 0,-7.18168 3.12247,-10.712472 3.19452,-3.674906 8.88702,-3.674906 5.28418,0 7.97431,3.482754 2.66611,3.650887 2.66611,9.511522 z m -2.23377,-0.48038 q 0,-5.668482 -2.54601,-8.262534 -2.13769,-2.305823 -5.8126,-2.305823 -4.01117,0 -6.72532,2.401899 -2.49797,2.233767 -3.00237,8.166458 z"
     id="path855"
     inkscape:connector-curvature="0" /><path
     d="m 211.98142,-20.75241 v -16.621144 h 2.16171 V 0 h -2.16171 v -6.1008244 q -1.5132,3.5067731 -3.2906,4.8037987 -2.71415,1.99357651 -5.11605,1.99357651 -4.77978,0 -7.95029,-3.89107691 -3.1705,-3.891077 -3.1705,-10.2320909 0,-6.341015 3.1705,-10.232092 3.17051,-3.891077 7.95029,-3.891077 2.4019,0 5.11605,1.993577 1.7774,1.297025 3.2906,4.803799 z m -14.4114,-2.041615 q -2.7862,2.810222 -2.7862,9.367408 0,6.5571848 2.7862,9.3674071 2.76219,2.8102222 5.83662,2.8102222 3.00237,0 5.78857,-2.8102222 2.76219,-2.8102223 2.76219,-9.3674071 0,-6.557186 -2.76219,-9.367408 -2.7862,-2.810222 -5.78857,-2.810222 -3.07443,0 -5.83662,2.810222 z"
     id="path857"
     inkscape:connector-curvature="0" /><path
     d="m 229.98107,-26.901273 h 2.2818 l 6.317,23.9709558 6.26895,-23.9709558 h 2.81023 l 6.31699,24.0910507 6.29298,-24.0910507 h 2.2818 L 255.51326,0 h -3.07444 L 246.24192,-23.586652 240.06904,0 h -3.02639 z"
     id="path859"
     inkscape:connector-curvature="0" /><path
     d="m 268.981,-26.901273 h 2.20975 V 0 H 268.981 Z m 0,-10.472281 h 2.20975 v 3.026393 H 268.981 Z"
     id="path861"
     inkscape:connector-curvature="0" /><path
     d="m 281.88574,-34.539313 v 7.63804 h 9.1032 v 1.873482 h -9.1032 v 16.1647824 q 0,3.0744311 0.79263,4.2993998 1.63329,2.6901273 4.75576,2.6901273 h 3.55481 V 0 h -3.43472 q -3.2906,0 -5.59642,-1.9215195 -2.30583,-1.9215195 -2.30583,-6.9414891 V -25.027791 h -3.21854 v -1.873482 h 3.21854 v -7.63804 z"
     id="path863"
     inkscape:connector-curvature="0" /><path
     d="M 315.1743,-16.23684 V 0 h -2.20974 v -16.092726 q 0,-5.188102 -1.75339,-7.349812 -1.75339,-2.161709 -5.3082,-2.161709 -4.08323,0 -6.46111,2.401899 -2.37788,2.4019 -2.37788,7.998325 V 0 h -2.20974 v -37.373554 h 2.20974 v 15.444213 q 0.76861,-2.065634 2.73817,-3.674906 2.35386,-1.945539 6.62924,-1.945539 3.98715,0 6.36503,2.858261 2.37788,2.882279 2.37788,8.454685 z"
     id="path865"
     inkscape:connector-curvature="0" /></g>
</g></g></g></svg>