<?xml version="1.0" encoding="UTF-8" standalone="no"?>
<svg
   xmlns:dc="http://purl.org/dc/elements/1.1/"
   xmlns:cc="http://creativecommons.org/ns#"
   xmlns:rdf="http://www.w3.org/1999/02/22-rdf-syntax-ns#"
   xmlns:svg="http://www.w3.org/2000/svg"
   xmlns="http://www.w3.org/2000/svg"
   viewBox="0 0 654.94562 81.279053"
   height="81.279053"
   width="654.94562"
   xml:space="preserve"
   id="svg2"
   version="1.1"><metadata
     id="metadata8"><rdf:RDF><cc:Work
         rdf:about=""><dc:format>image/svg+xml</dc:format><dc:type
           rdf:resource="http://purl.org/dc/dcmitype/StillImage" /><dc:title></dc:title></cc:Work></rdf:RDF></metadata><defs
     id="defs6"><clipPath
       id="clipPath18"
       clipPathUnits="userSpaceOnUse"><path
         id="path16"
         d="M 0,500 H 700 V 0 H 0 Z" /></clipPath></defs><g
     transform="matrix(1.3333333,0,0,-1.3333333,-141.80412,257.58413)"
     id="g10"><g
       id="g12"><g
         clip-path="url(#clipPath18)"
         id="g14"><g
           style="fill:#ffffff"
           transform="translate(467.7817,148.5889)"
           id="g52"><path
             id="path54"
             style="fill:#ffffff;fill-opacity:1;fill-rule:nonzero;stroke:none"
             d="m 0,0 c 0.452,1.18 0.679,3.106 0.679,5.781 v 11.268 c 0,2.596 -0.227,4.493 -0.679,5.693 -0.452,1.199 -1.249,1.799 -2.389,1.799 -1.102,0 -1.879,-0.6 -2.33,-1.799 -0.453,-1.2 -0.678,-3.097 -0.678,-5.693 V 5.781 c 0,-2.675 0.215,-4.601 0.648,-5.781 0.433,-1.18 1.219,-1.77 2.36,-1.77 1.14,0 1.937,0.59 2.389,1.77 m -9.144,-5.663 c -1.632,1.101 -2.793,2.811 -3.48,5.133 -0.689,2.319 -1.033,5.406 -1.033,9.261 v 5.25 c 0,3.894 0.393,7.021 1.18,9.38 0.787,2.36 2.015,4.079 3.687,5.162 1.671,1.081 3.864,1.623 6.578,1.623 2.674,0 4.817,-0.551 6.43,-1.653 1.612,-1.1 2.792,-2.822 3.539,-5.161 0.747,-2.341 1.121,-5.457 1.121,-9.351 V 8.731 C 8.878,4.876 8.515,1.779 7.787,-0.561 7.059,-2.9 5.879,-4.611 4.248,-5.692 2.615,-6.773 0.403,-7.314 -2.389,-7.314 c -2.871,0 -5.123,0.55 -6.755,1.651" /></g><g
           style="fill:#ffffff"
           transform="translate(584.9663,172.4541)"
           id="g56"><path
             id="path58"
             style="fill:#ffffff;fill-opacity:1;fill-rule:nonzero;stroke:none"
             d="m 0,0 c -0.412,-0.512 -0.688,-1.348 -0.826,-2.507 -0.138,-1.161 -0.206,-2.92 -0.206,-5.28 v -2.596 h 5.958 v 2.596 c 0,2.32 -0.079,4.08 -0.236,5.28 C 4.533,-1.308 4.248,-0.463 3.835,0.029 3.422,0.521 2.782,0.768 1.917,0.768 1.052,0.768 0.414,0.511 0,0 m -1.032,-15.22 v -1.829 c 0,-2.321 0.068,-4.061 0.206,-5.221 0.138,-1.161 0.422,-2.005 0.856,-2.537 0.432,-0.531 1.1,-0.797 2.006,-0.797 1.218,0 2.054,0.473 2.506,1.417 0.452,0.944 0.698,2.516 0.738,4.719 l 7.02,-0.413 c 0.039,-0.315 0.059,-0.747 0.059,-1.298 0,-3.342 -0.914,-5.84 -2.743,-7.492 -1.828,-1.651 -4.415,-2.477 -7.758,-2.477 -4.011,0 -6.823,1.257 -8.436,3.775 -1.612,2.517 -2.419,6.41 -2.419,11.681 v 6.312 c 0,5.428 0.836,9.39 2.508,11.888 1.672,2.497 4.532,3.746 8.584,3.746 2.792,0 4.935,-0.512 6.429,-1.534 1.495,-1.024 2.547,-2.616 3.157,-4.779 0.61,-2.163 0.915,-5.153 0.915,-8.966 v -6.195 z" /></g><g
           style="fill:#ffffff"
           transform="translate(438.8145,157.9111)"
           id="g60"><path
             id="path62"
             style="fill:#ffffff;fill-opacity:1;fill-rule:nonzero;stroke:none"
             d="M 0,0 -9.262,33.449 H -1.18 L 2.064,18.288 C 2.891,14.551 3.5,11.365 3.893,8.731 h 0.236 c 0.275,1.888 0.885,5.053 1.829,9.498 l 3.362,15.22 h 8.083 L 8.023,0 V -16.047 H 0 Z" /></g><g
           style="fill:#ffffff"
           transform="translate(502.9458,178.0264)"
           id="g64"><path
             id="path66"
             style="fill:#ffffff;fill-opacity:1;fill-rule:nonzero;stroke:none"
             d="m 0,0 v -36.162 h -6.372 l -0.708,4.425 h -0.176 c -1.732,-3.344 -4.327,-5.015 -7.787,-5.015 -2.4,0 -4.169,0.786 -5.31,2.359 -1.141,1.574 -1.71,4.032 -1.71,7.374 V 0 h 8.141 v -26.546 c 0,-1.613 0.176,-2.764 0.53,-3.451 0.354,-0.689 0.944,-1.032 1.77,-1.032 0.708,0 1.387,0.216 2.035,0.648 0.649,0.433 1.13,0.983 1.446,1.652 V 0 Z" /></g><g
           style="fill:#ffffff"
           transform="translate(544.7036,178.0264)"
           id="g68"><path
             id="path70"
             style="fill:#ffffff;fill-opacity:1;fill-rule:nonzero;stroke:none"
             d="m 0,0 v -36.162 h -6.371 l -0.709,4.425 h -0.176 c -1.731,-3.344 -4.327,-5.015 -7.787,-5.015 -2.4,0 -4.169,0.786 -5.31,2.359 -1.141,1.574 -1.71,4.032 -1.71,7.374 V 0 h 8.141 v -26.546 c 0,-1.613 0.177,-2.764 0.53,-3.451 0.354,-0.689 0.944,-1.032 1.77,-1.032 0.708,0 1.387,0.216 2.036,0.648 0.648,0.433 1.13,0.983 1.445,1.652 V 0 Z" /></g><g
           style="fill:#ffffff"
           transform="translate(525.0674,184.8105)"
           id="g72"><path
             id="path74"
             style="fill:#ffffff;fill-opacity:1;fill-rule:nonzero;stroke:none"
             d="m 0,0 h -8.082 v -42.946 h -7.964 V 0 h -8.082 V 6.549 H 0 Z" /></g><g
           style="fill:#ffffff"
           transform="translate(564.1846,157.4951)"
           id="g76"><path
             id="path78"
             style="fill:#ffffff;fill-opacity:1;fill-rule:nonzero;stroke:none"
             d="m 0,0 c 0,-2.635 -0.109,-4.7 -0.325,-6.193 -0.216,-1.496 -0.58,-2.558 -1.091,-3.187 -0.512,-0.629 -1.2,-0.943 -2.064,-0.943 -0.67,0 -1.289,0.156 -1.859,0.471 -0.57,0.315 -1.032,0.787 -1.386,1.416 v 20.53 c 0.275,0.982 0.746,1.789 1.416,2.419 0.668,0.628 1.395,0.943 2.183,0.943 0.825,0 1.464,-0.324 1.917,-0.973 0.451,-0.649 0.766,-1.74 0.943,-3.274 C -0.088,9.675 0,7.492 0,4.661 Z m 7.462,14.751 c -0.492,2.28 -1.288,3.932 -2.389,4.955 -1.101,1.023 -2.615,1.534 -4.542,1.534 -1.495,0 -2.891,-0.424 -4.189,-1.268 -1.298,-0.846 -2.3,-1.957 -3.008,-3.333 h -0.06 l 0.001,19.054 h -7.846 v -51.324 h 6.725 l 0.825,3.422 h 0.178 c 0.628,-1.22 1.572,-2.183 2.831,-2.891 1.259,-0.708 2.655,-1.061 4.189,-1.061 2.752,0 4.778,1.267 6.076,3.805 C 7.551,-9.819 8.2,-5.858 8.2,-0.47 v 5.723 c 0,4.05 -0.246,7.216 -0.738,9.498" /></g><text
           id="text82"
           style="font-variant:normal;font-weight:300;font-stretch:normal;font-size:49.1908989px;font-family:'Roboto Light';-inkscape-font-specification:Roboto-Light;writing-mode:lr-tb;fill:#ffffff;fill-opacity:1;fill-rule:nonzero;stroke:none;"
           transform="matrix(1,0,0,-1,102.438,142.4609)"><tspan
             id="tspan80"
             y="0"
             x="0 26.858231 51.46352 74.317612 99.257401 109.78425 136.83925 163.59909 188.53888 215.39711 226.8586 263.45663 273.98349 289.28183">developed with</tspan></text>
</g></g></g></svg>